Normalized EMG Linear Envelopes
nRows=127
nColumns=4

endheader
time	 med_gas_r	  soleus_r	 tib_ant_r	
2.5	  0.006761	  0.017912	  0.004422	
2.5625	  0.007283	  0.018380	  0.004331	
2.625	  0.007915	  0.018812	  0.004351	
2.6875	  0.008623	  0.019198	  0.004527	
2.75	  0.009278	  0.019414	  0.004800	
2.8125	  0.009740	  0.019207	  0.005040	
2.875	  0.009885	  0.018529	  0.005114	
2.9375	  0.009719	  0.017844	  0.004960	
3	  0.009468	  0.017987	  0.004647	
3.0625	  0.009337	  0.019613	  0.004335	
3.125	  0.009252	  0.022496	  0.004127	
3.1875	  0.009023	  0.025207	  0.004013	
3.25	  0.008628	  0.025966	  0.003939	
3.3125	  0.008182	  0.024305	  0.003861	
3.375	  0.007794	  0.021423	  0.003783	
3.4375	  0.007569	  0.018785	  0.003758	
3.5	  0.007613	  0.017121	  0.003826	
3.5625	  0.007944	  0.016594	  0.003982	
3.625	  0.008370	  0.017008	  0.004160	
3.6875	  0.008519	  0.017877	  0.004253	
3.75	  0.008243	  0.018767	  0.004188	
3.8125	  0.007937	  0.019583	  0.004020	
3.875	  0.008171	  0.020352	  0.003891	
3.9375	  0.008983	  0.020934	  0.003881	
4	  0.009794	  0.021082	  0.003959	
4.0625	  0.010090	  0.020601	  0.004071	
4.125	  0.009868	  0.019518	  0.004183	
4.1875	  0.009379	  0.018318	  0.004249	
4.25	  0.008855	  0.017736	  0.004241	
4.3125	  0.008513	  0.018129	  0.004227	
4.375	  0.008500	  0.019248	  0.004371	
4.4375	  0.008765	  0.020558	  0.004798	
4.5	  0.009053	  0.021681	  0.005406	
4.5625	  0.009044	  0.022353	  0.005863	
4.625	  0.008579	  0.021862	  0.005905	
4.6875	  0.007761	  0.019356	  0.005490	
4.75	  0.006870	  0.015321	  0.004800	
4.8125	  0.006414	  0.012446	  0.004589	
4.875	  0.007407	  0.015258	  0.006499	
4.9375	  0.011477	  0.029146	  0.012444	
5	  0.020055	  0.058103	  0.022934	
5.0625	  0.032580	  0.101128	  0.035761	
5.125	  0.045977	  0.150844	  0.047320	
5.1875	  0.057269	  0.198467	  0.055842	
5.25	  0.066478	  0.242491	  0.062249	
5.3125	  0.076178	  0.289616	  0.067981	
5.375	  0.089338	  0.343513	  0.073697	
5.4375	  0.108505	  0.397247	  0.079586	
5.5	  0.134252	  0.440598	  0.085139	
5.5625	  0.161596	  0.469868	  0.088922	
5.625	  0.181888	  0.490538	  0.089788	
5.6875	  0.193782	  0.513838	  0.088838	
5.75	  0.208319	  0.544432	  0.089423	
5.8125	  0.235597	  0.571367	  0.093570	
5.875	  0.269624	  0.581557	  0.099131	
5.9375	  0.294065	  0.578469	  0.102773	
6	  0.299832	  0.577506	  0.104338	
6.0625	  0.291344	  0.587453	  0.105825	
6.125	  0.281079	  0.600992	  0.108255	
6.1875	  0.281832	  0.602547	  0.111488	
6.25	  0.297222	  0.588013	  0.115199	
6.3125	  0.317760	  0.572483	  0.118722	
6.375	  0.329719	  0.571833	  0.120866	
6.4375	  0.325660	  0.585161	  0.120920	
6.5	  0.307523	  0.602324	  0.119672	
6.5625	  0.285807	  0.617414	  0.118508	
6.625	  0.274107	  0.628117	  0.117706	
6.6875	  0.279825	  0.632097	  0.116725	
6.75	  0.299708	  0.628977	  0.115806	
6.8125	  0.322751	  0.621258	  0.115443	
6.875	  0.338042	  0.612284	  0.114924	
6.9375	  0.342909	  0.604234	  0.113609	
7	  0.342842	  0.598482	  0.112784	
7.0625	  0.345739	  0.596425	  0.114493	
7.125	  0.359749	  0.598373	  0.118852	
7.1875	  0.388689	  0.603676	  0.123362	
7.25	  0.423109	  0.611352	  0.125729	
7.3125	  0.446012	  0.620425	  0.126548	
7.375	  0.451849	  0.631075	  0.127373	
7.4375	  0.448744	  0.640720	  0.127918	
7.5	  0.443399	  0.640996	  0.126753	
7.5625	  0.436216	  0.628872	  0.122400	
7.625	  0.427160	  0.618559	  0.114277	
7.6875	  0.417566	  0.630407	  0.104834	
7.75	  0.409924	  0.665257	  0.098508	
7.8125	  0.407955	  0.698998	  0.097214	
7.875	  0.413642	  0.707191	  0.099196	
7.9375	  0.424297	  0.687923	  0.102167	
8	  0.433997	  0.658091	  0.105341	
8.0625	  0.438566	  0.636306	  0.108494	
8.125	  0.438300	  0.632909	  0.110661	
8.1875	  0.436292	  0.650700	  0.110842	
8.25	  0.438713	  0.688637	  0.109856	
8.3125	  0.453460	  0.738358	  0.109747	
8.375	  0.479779	  0.780102	  0.111521	
8.4375	  0.505601	  0.794673	  0.115741	
8.5	  0.523019	  0.779907	  0.123188	
8.5625	  0.534692	  0.747188	  0.132252	
8.625	  0.542283	  0.706071	  0.139134	
8.6875	  0.545129	  0.660115	  0.142101	
8.75	  0.546733	  0.613428	  0.142370	
8.8125	  0.548930	  0.574507	  0.140784	
8.875	  0.549131	  0.553650	  0.136497	
8.9375	  0.546991	  0.555981	  0.129718	
9	  0.542863	  0.576965	  0.123580	
9.0625	  0.535265	  0.609235	  0.121268	
9.125	  0.525917	  0.649448	  0.122737	
9.1875	  0.519466	  0.692111	  0.125672	
9.25	  0.518527	  0.726396	  0.127981	
9.3125	  0.522605	  0.743830	  0.128835	
9.375	  0.528664	  0.740194	  0.128796	
9.4375	  0.532263	  0.713251	  0.129063	
9.5	  0.529367	  0.667227	  0.130336	
9.5625	  0.516488	  0.613135	  0.132341	
9.625	  0.489539	  0.558814	  0.133970	
9.6875	  0.445829	  0.503960	  0.134324	
9.75	  0.390103	  0.447051	  0.132851	
9.8125	  0.334359	  0.392222	  0.127837	
9.875	  0.287442	  0.346795	  0.117501	
9.9375	  0.248054	  0.312395	  0.102631	
10	  0.208629	  0.279287	  0.085433	
10.0625	  0.163408	  0.233717	  0.067290	
10.125	  0.114130	  0.173789	  0.049439	
10.1875	  0.069228	  0.113285	  0.033624	
10.25	  0.036657	  0.067338	  0.021023	
10.3125	  0.017697	  0.039538	  0.011513	
10.375	  0.006823	  0.022707	  0.003756	
